# xmcd CD database file
#
# Track frame offsets:
#	182
#	10327
#	20050
#	30420
#	46230
#	57032
#	68377
#	81727
#	96555
#	108605
#	118767
#	130042
#	143732
#	159232
#	171932
#	187812
#	202797
#	213077
#	231215
#	245235
#
# Disc length: 3415 seconds
#
# Revision: 2
# Processed by: cddbd v1.5.2PL0 Copyright (c) Steve Scherf et al.
# Submitted via: jetAudio 7
#
DISCID=0e0d5514
DTITLE=Statler Brothers - Decades Of Hits Disc 2
DYEAR=1900
DGENRE=Country
TTITLE0=Do You Know You Are My Sunshine
TTITLE1=Who Am I To Say
TTITLE2=The Official Historian Of Shirley Jean Berrell
TTITLE3=How To Be A Country Star
TTITLE4=Nothing As Original As You
TTITLE5=I'll Even Love You Better Than I Did Then
TTITLE6=Charlotte's Web
TTITLE7=Don't Wait On Me
TTITLE8=You'll Be Back (Every Night In My Dreams)
TTITLE9=Whatever
TTITLE10=Oh Baby Mine (I Get So Lonely)
TTITLE11=Guilty
TTITLE12=Elizabeth
TTITLE13=Atlanta Blue
TTITLE14=One Takes The Blame
TTITLE15=My Only Love
TTITLE16=Hello Mary Lou
TTITLE17=Too Much On My Heart
TTITLE18=Sweeter And Sweeter
TTITLE19=Count On Me
EXTD=
EXTT0=
EXTT1=
EXTT2=
EXTT3=
EXTT4=
EXTT5=
EXTT6=
EXTT7=
EXTT8=
EXTT9=
EXTT10=
EXTT11=
EXTT12=
EXTT13=
EXTT14=
EXTT15=
EXTT16=
EXTT17=
EXTT18=
EXTT19=
PLAYORDER=
